<svg width="17" height="17" viewBox="0 0 17 17" fill="none" xmlns="http://www.w3.org/2000/svg">
<g id="SVG" clip-path="url(#clip0_2_188)">
<path id="Vector" d="M0.379987 4.03498C0.480805 3.59322 0.728642 3.19879 1.08291 2.91629C1.43717 2.63378 1.87687 2.47995 2.32999 2.47998H14.33C14.7831 2.47995 15.2228 2.63378 15.5771 2.91629C15.9313 3.19879 16.1792 3.59322 16.28 4.03498L8.32999 8.89398L0.379987 4.03498ZM0.329987 5.17698V12.281L6.13299 8.72298L0.329987 5.17698ZM7.09099 9.30998L0.520987 13.337C0.683313 13.6793 0.939513 13.9684 1.25977 14.1708C1.58002 14.3731 1.95116 14.4803 2.32999 14.48H14.33C14.7087 14.4801 15.0798 14.3726 15.3998 14.1701C15.7199 13.9675 15.9759 13.6783 16.138 13.336L9.56799 9.30898L8.32999 10.066L7.09099 9.30998ZM10.527 8.72398L16.33 12.281V5.17698L10.527 8.72298V8.72398Z" fill="white"/>
</g>
<defs>
<clipPath id="clip0_2_188">
<rect width="16" height="16" fill="white" transform="translate(0.329987 0.47998)"/>
</clipPath>
</defs>
</svg>
