<svg width="16" height="17" viewBox="0 0 16 17" fill="none" xmlns="http://www.w3.org/2000/svg">
<g id="SVG" clip-path="url(#clip0_2_177)">
<path id="Vector" d="M8 16.48C8 16.48 14 10.794 14 6.47998C14 4.88868 13.3679 3.36256 12.2426 2.23734C11.1174 1.11212 9.5913 0.47998 8 0.47998C6.4087 0.47998 4.88258 1.11212 3.75736 2.23734C2.63214 3.36256 2 4.88868 2 6.47998C2 10.794 8 16.48 8 16.48ZM8 9.47998C7.20435 9.47998 6.44129 9.16391 5.87868 8.6013C5.31607 8.03869 5 7.27563 5 6.47998C5 5.68433 5.31607 4.92127 5.87868 4.35866C6.44129 3.79605 7.20435 3.47998 8 3.47998C8.79565 3.47998 9.55871 3.79605 10.1213 4.35866C10.6839 4.92127 11 5.68433 11 6.47998C11 7.27563 10.6839 8.03869 10.1213 8.6013C9.55871 9.16391 8.79565 9.47998 8 9.47998Z" fill="white"/>
</g>
<defs>
<clipPath id="clip0_2_177">
<rect width="16" height="16" fill="white" transform="translate(0 0.47998)"/>
</clipPath>
</defs>
</svg>
