<svg width="17" height="17" viewBox="0 0 17 17" fill="none" xmlns="http://www.w3.org/2000/svg">
<g id="SVG" clip-path="url(#clip0_2_197)">
<path id="Vector" fill-rule="evenodd" clip-rule="evenodd" d="M2.54497 0.991005C2.71995 0.816294 2.93005 0.680764 3.16137 0.593395C3.39268 0.506027 3.63993 0.468816 3.88671 0.484228C4.13349 0.49964 4.37419 0.567324 4.59283 0.682793C4.81148 0.798263 5.00309 0.958881 5.15497 1.15401L6.94997 3.46001C7.27897 3.88301 7.39497 4.43401 7.26497 4.95401L6.71797 7.14401C6.68969 7.25743 6.69122 7.37625 6.72241 7.48891C6.7536 7.60158 6.81339 7.70427 6.89597 7.78701L9.35297 10.244C9.43581 10.3268 9.53866 10.3866 9.65152 10.4178C9.76438 10.449 9.88339 10.4505 9.99697 10.422L12.186 9.87501C12.4426 9.81084 12.7104 9.80586 12.9693 9.86043C13.2281 9.915 13.4711 10.0277 13.68 10.19L15.986 11.984C16.815 12.629 16.891 13.854 16.149 14.595L15.115 15.629C14.375 16.369 13.269 16.694 12.238 16.331C9.59915 15.4025 7.20324 13.8918 5.22797 11.911C3.24726 9.93602 1.73658 7.54046 0.807971 4.90201C0.445971 3.87201 0.770971 2.76501 1.51097 2.02501L2.54497 0.991005Z" fill="white"/>
</g>
<defs>
<clipPath id="clip0_2_197">
<rect width="16" height="16" fill="white" transform="translate(0.659973 0.47998)"/>
</clipPath>
</defs>
</svg>
